<svg width="20" height="23" viewBox="0 0 24 24" fill="none" xmlns="http://www.w3.org/2000/svg">
<path d="M18 23H2C1.46975 22.9995 0.9614 22.8263 0.586459 22.5183C0.211518 22.2103 0.000608734 21.7927 0 21.3571V1.64286C0.000529477 1.20728 0.211413 0.789663 0.586371 0.481662C0.961329 0.173661 1.46973 0.000434927 2 0H18C18.5302 0.000500031 19.0386 0.173747 19.4135 0.481734C19.7885 0.789721 19.9994 1.2073 20 1.64286V15.2935L15 13.24L10 15.2935V1.64286H2V21.3571H18V18.0714H20V21.3571C19.9993 21.7927 19.7883 22.2102 19.4134 22.5182C19.0385 22.8261 18.5302 22.9994 18 23ZM15 11.4029L18 12.6351V1.64286H12V12.6351L15 11.4029Z" fill="#474747"/>
</svg>
